<svg xmlns="http://www.w3.org/2000/svg" width="150" height="50" viewBox="0,0,150,50"><path fill="#222" d="M24.11 40.45L24.11 40.45L24.05 40.39Q20.04 40.68 19.05 38.36L18.96 38.27L19.07 38.38Q19.76 37.35 21.32 35.56L21.35 35.60L21.36 35.60Q21.75 37.51 24.75 37.63L24.76 37.64L24.74 37.61Q28.25 37.82 29.89 36.48L29.74 36.33L29.90 36.49Q31.31 34.89 31.23 32.19L31.24 32.20L31.15 32.11Q30.98 27.03 26.18 27.25L26.25 27.32L26.25 27.32Q23.41 27.45 21.66 28.71L21.65 28.70L21.37 28.57L21.17 28.45L21.18 28.46Q21.54 25.31 21.42 22.57L21.41 22.56L21.41 22.56Q21.14 19.78 20.80 16.46L20.88 16.55L20.85 16.51Q24.63 17.59 28.44 17.48L28.40 17.44L28.37 17.41Q32.16 17.32 35.74 16.07L35.70 16.02L35.26 17.67L35.26 17.67Q34.84 18.33 34.65 19.16L34.60 19.12L34.74 19.25Q31.45 20.12 27.57 20.12L27.74 20.29L27.57 20.12Q26.13 20.12 24.64 19.97L24.82 20.14L24.68 20.00Q24.70 20.78 24.35 25.24L24.38 25.26L24.28 25.16Q25.13 24.72 27.19 24.57L27.17 24.55L27.23 24.61Q30.84 24.72 32.29 26.39L32.35 26.46L32.47 26.57Q33.66 27.92 33.93 31.76L34.02 31.86L34.06 31.89Q34.35 36.11 33.13 38.12L32.97 37.96L32.97 37.96Q31.08 39.99 27.77 40.22L27.71 40.17L27.80 40.25Q26.63 40.15 23.97 40.30ZM30.07 42.64L30.04 42.61L30.04 42.61Q33.61 42.82 35.51 41.72L35.39 41.60L35.39 41.60Q36.36 40.06 36.36 37.97L36.43 38.03L36.43 38.03Q36.42 34.94 35.47 30.83L35.50 30.87L35.46 30.82Q35.04 29.03 33.82 27.62L33.76 27.57L33.93 27.77L33.68 27.45L33.27 27.19L33.26 27.18Q33.01 26.50 32.36 25.82L32.35 25.81L32.37 25.86L32.42 25.91Q30.84 24.18 27.15 24.18L27.18 24.22L26.97 24.27L26.94 24.24Q27.03 23.68 27.22 22.58L27.26 22.62L27.09 22.45Q32.25 22.74 36.28 21.10L36.19 21.00L36.21 21.02Q36.68 19.67 37.63 16.85L37.52 16.74L35.50 17.76L35.41 17.68Q35.79 16.54 36.29 15.39L36.31 15.42L36.41 15.52Q32.55 16.94 28.44 17.02L28.36 16.94L28.43 17.02Q24.33 17.14 20.37 16.03L20.32 15.99L20.24 15.91Q20.92 20.32 20.92 24.74L20.99 24.80L21.09 24.90Q20.98 26.70 20.87 28.60L20.83 28.56L20.87 28.60Q21.18 28.84 21.75 29.14L21.63 29.02L21.74 29.13Q21.97 28.79 22.61 28.44L22.73 28.56L22.63 28.47Q22.77 29.40 22.54 30.92L22.40 30.78L22.53 30.91Q22.96 31.11 23.38 31.34L23.30 31.26L23.25 31.22Q25.98 29.41 27.84 29.41L28.01 29.58L27.89 29.46Q29.20 29.43 30.38 30.08L30.39 30.10L30.40 30.10Q30.72 31.11 30.76 32.06L30.82 32.12L30.81 32.11Q30.98 34.80 29.96 35.90L29.91 35.85L29.87 35.81Q28.59 37.12 26.34 37.35L26.17 37.17L26.33 37.34Q25.29 37.32 24.60 37.25L24.68 37.32L24.55 37.20Q23.86 37.23 23.10 36.89L23.04 36.82L23.05 36.65L22.92 36.74L22.96 36.79Q22.12 36.25 21.59 34.92L21.60 34.93L21.61 34.94Q20.19 36.26 18.51 38.39L18.56 38.44L18.52 38.40Q18.73 38.95 19.57 39.90L19.68 40.02L19.57 39.91Q20.67 41.76 23.48 42.26L23.61 42.39L23.59 42.37Q24.65 42.47 30.02 42.59Z"/><path d="M14 28 C83 15,82 11,134 6" stroke="#222" fill="none"/><path d="M6 11 C71 27,74 48,136 17" stroke="#555" fill="none"/><path d="M15 33 C66 29,95 31,133 6" stroke="#444" fill="none"/><path d="M8 11 C56 40,74 9,144 1" stroke="#777" fill="none"/><path d="M6 5 C84 32,72 33,144 5" stroke="#333" fill="none"/><path fill="#333" d="M82.59 40.34L82.51 40.25L82.67 40.42Q81.22 40.45 79.66 40.03L79.70 40.08L79.66 40.04Q78.36 39.04 78.21 37.40L78.17 37.37L78.25 37.44Q78.19 37.23 78.38 34.60L78.39 34.62L78.39 34.61Q79.43 34.43 81.44 34.05L81.40 34.01L81.28 34.84L81.21 34.77Q81.04 36.62 82.45 37.19L82.39 37.13L82.34 37.08Q83.19 37.48 85.29 37.48L85.39 37.58L85.36 37.55Q86.89 37.33 87.08 37.25L87.14 37.31L87.06 37.23Q87.97 37.07 88.69 36.58L88.81 36.70L88.81 36.70Q90.21 35.74 90.02 33.65L89.98 33.60L89.97 33.60Q89.66 31.04 87.93 29.48L88.03 29.58L87.99 29.54Q86.37 28.09 83.89 28.09L83.73 27.93L83.76 27.73L83.86 27.83Q84.16 27.70 85.03 27.63L84.97 27.57L85.05 27.64Q87.02 27.59 88.39 26.36L88.31 26.28L88.43 26.40Q89.63 25.00 89.79 23.13L89.95 23.29L89.80 23.15Q89.86 22.79 89.86 22.45L89.89 22.48L90.01 22.60Q89.97 21.03 88.59 20.11L88.50 20.02L88.47 19.99Q87.36 19.30 85.76 19.41L85.68 19.33L85.70 19.35Q84.53 19.32 83.31 19.74L83.34 19.77L83.15 19.58Q81.80 20.20 81.49 21.35L81.46 21.31L81.46 21.31Q81.31 22.12 81.39 22.88L81.47 22.96L81.35 22.84Q80.25 22.54 78.19 21.82L78.27 21.90L78.32 21.94Q78.01 20.19 78.05 19.35L78.19 19.49L78.05 19.35Q78.22 17.89 79.29 17.20L79.36 17.28L79.33 17.24Q80.67 16.57 82.27 16.57L82.34 16.64L82.38 16.68Q85.48 16.58 88.64 16.85L88.64 16.84L88.60 16.81Q93.70 17.26 93.40 21.03L93.32 20.95L93.28 20.92Q93.31 22.51 92.82 24.07L92.75 24.00L92.71 23.96Q91.82 27.07 89.46 27.99L89.47 27.99L89.51 28.03Q92.08 28.51 92.69 31.86L92.73 31.90L92.67 31.84Q92.94 33.02 93.02 35.04L93.14 35.16L93.13 35.16Q93.20 39.53 88.59 39.98L88.68 40.07L88.68 40.07Q87.88 40.07 82.58 40.33ZM87.89 42.67L87.76 42.53L87.89 42.67Q88.43 42.64 91.28 42.71L91.35 42.78L91.28 42.71Q93.05 42.80 94.69 42.16L94.60 42.06L94.56 42.03Q95.87 41.21 95.68 39.45L95.72 39.50L95.59 39.37Q95.52 38.08 95.21 36.33L95.21 36.32L95.17 36.29Q94.44 31.78 92.50 30.15L92.53 30.18L92.46 29.91L92.34 29.76L92.29 29.71Q94.13 28.35 94.89 23.97L94.77 23.85L94.87 23.95Q94.80 23.39 94.92 22.44L94.96 22.48L95.08 22.60Q95.18 21.86 95.10 21.18L95.08 21.16L94.92 21.00Q94.94 19.49 93.64 18.80L93.65 18.81L93.50 18.74L93.55 18.79Q93.09 17.64 91.95 17.11L92.13 17.29L92.06 17.22Q90.42 16.42 85.28 16.11L85.28 16.11L85.45 16.28Q83.78 16.22 82.19 16.22L82.11 16.14L82.16 16.19Q80.53 16.16 79.01 16.81L78.91 16.71L78.91 16.71Q77.70 17.48 77.70 19.23L77.67 19.20L77.79 19.32Q77.75 18.86 78.02 22.21L77.98 22.18L77.95 22.15Q78.38 22.34 80.02 22.95L79.94 22.88L79.91 22.85Q80.02 23.49 79.98 23.99L79.96 23.96L79.87 23.87Q79.90 24.40 79.94 24.93L80.06 25.05L79.89 24.88Q81.66 25.24 83.68 25.36L83.74 25.43L83.74 25.42Q83.73 23.47 84.83 22.63L84.83 22.63L84.83 22.62Q85.72 22.03 87.73 21.80L87.62 21.69L87.63 21.70Q88.82 21.74 89.39 21.93L89.41 21.96L89.39 21.93Q89.43 22.05 89.46 22.16L89.47 22.17L89.41 22.30L89.58 22.92L89.64 22.98Q89.57 23.11 89.53 23.26L89.51 23.23L89.61 23.33Q89.42 24.93 87.90 26.11L87.97 26.19L88.02 26.23Q86.94 26.98 84.92 27.17L84.95 27.20L85.08 27.33Q84.27 27.40 83.40 27.40L83.33 27.34L83.46 27.47Q83.40 27.71 83.55 28.39L83.58 28.42L83.61 28.46Q85.39 28.49 86.84 29.21L86.77 29.14L86.69 29.17L85.19 29.42L85.06 29.30Q85.21 29.74 85.32 30.35L85.20 30.24L85.22 30.25Q87.41 30.23 89.12 31.57L89.03 31.47L89.17 31.61Q89.30 31.90 89.60 33.53L89.60 33.53L89.63 33.56Q89.89 36.56 86.96 36.98L86.83 36.85L86.87 36.89Q84.79 37.17 84.22 37.14L84.19 37.10L84.30 37.21Q83.81 37.07 83.28 36.99L83.17 36.89L83.31 36.57L83.43 36.12L83.46 35.73L83.47 35.40L83.38 35.31Q82.41 35.36 81.61 35.55L81.73 35.67L81.71 35.65Q81.66 35.41 81.66 35.22L81.72 35.28L81.61 35.17Q81.72 35.05 81.72 34.82L81.72 34.82L81.76 34.86Q81.69 34.34 81.85 33.62L81.82 33.59L81.91 33.68Q80.08 33.95 78.22 34.29L78.15 34.22L78.08 34.15Q78.06 34.63 77.95 35.75L77.95 35.76L77.93 35.73Q77.91 36.95 77.91 37.56L77.92 37.57L77.98 37.63Q77.95 39.58 79.32 40.34L79.43 40.45L79.32 40.34Q80.78 42.60 85.50 42.41L85.52 42.42L85.49 42.40Q86.26 42.41 87.78 42.56Z"/><path fill="#222" d="M112.87 40.41L112.86 40.40L112.81 40.34Q108.68 40.52 107.69 38.19L107.86 38.37L107.83 38.34Q108.47 37.26 110.03 35.47L110.13 35.57L110.15 35.59Q110.64 37.60 113.64 37.72L113.60 37.67L113.65 37.72Q117.00 37.76 118.64 36.43L118.57 36.36L118.57 36.36Q120.00 34.79 119.93 32.09L120.05 32.21L119.89 32.04Q119.73 26.97 114.93 27.20L114.93 27.20L115.04 27.31Q112.26 27.50 110.51 28.76L110.36 28.61L110.10 28.50L109.83 28.31L109.87 28.34Q110.21 25.19 110.10 22.45L110.12 22.47L110.07 22.42Q110.10 19.93 109.75 16.62L109.67 16.54L109.74 16.60Q113.30 17.46 117.11 17.35L117.13 17.38L117.06 17.30Q120.90 17.26 124.48 16.00L124.48 16.01L124.00 17.62L123.94 17.56Q123.57 18.25 123.38 19.09L123.51 19.22L123.49 19.20Q120.31 20.17 116.42 20.17L116.50 20.24L116.42 20.16Q114.95 20.14 113.46 19.99L113.53 20.06L113.59 20.11Q113.44 20.72 113.09 25.17L113.03 25.12L113.03 25.12Q113.88 24.67 115.94 24.52L115.92 24.50L116.05 24.63Q119.64 24.72 121.09 26.40L121.19 26.50L121.23 26.54Q122.59 28.04 122.85 31.89L122.72 31.76L122.91 31.95Q123.09 36.05 121.88 38.07L121.95 38.15L121.80 37.99Q119.80 39.92 116.49 40.14L116.58 40.24L116.49 40.15Q115.51 40.23 112.84 40.38ZM118.95 42.71L118.84 42.61L118.92 42.69Q122.38 42.80 124.28 41.70L124.14 41.56L124.28 41.69Q125.28 40.18 125.28 38.09L125.23 38.04L125.27 38.07Q125.31 35.03 124.36 30.92L124.27 30.83L124.25 30.81Q123.81 29.00 122.59 27.59L122.56 27.57L122.62 27.66L122.55 27.51L122.06 27.18L122.11 27.23Q121.82 26.51 121.17 25.83L121.27 25.93L121.21 25.91L121.21 25.91Q119.75 24.30 116.06 24.30L115.89 24.12L115.66 24.17L115.79 24.29Q115.82 23.68 116.01 22.57L116.06 22.62L116.03 22.59Q121.02 22.71 125.06 21.07L124.97 20.99L125.04 21.06Q125.32 19.51 126.28 16.70L126.40 16.82L124.32 17.79L124.29 17.76Q124.61 16.56 125.11 15.42L125.19 15.50L125.06 15.37Q121.38 16.98 117.27 17.05L117.11 16.89L117.28 17.06Q113.15 17.16 109.19 16.06L109.10 15.96L109.08 15.94Q109.84 20.44 109.84 24.86L109.88 24.89L109.83 24.85Q109.75 26.67 109.63 28.57L109.75 28.69L109.60 28.54Q109.87 28.73 110.44 29.03L110.62 29.21L110.60 29.19Q110.77 28.79 111.42 28.45L111.46 28.50L111.54 28.57Q111.43 29.26 111.21 30.79L111.20 30.78L111.32 30.90Q111.75 31.10 112.16 31.33L111.98 31.15L112.11 31.27Q114.76 29.40 116.63 29.40L116.75 29.51L116.65 29.41Q117.99 29.42 119.17 30.07L119.26 30.16L119.32 30.22Q119.50 31.08 119.53 32.03L119.61 32.11L119.61 32.11Q119.61 34.62 118.58 35.72L118.66 35.80L118.74 35.88Q117.25 36.98 115.00 37.21L115.12 37.33L115.11 37.32Q114.15 37.39 113.47 37.31L113.33 37.18L113.43 37.27Q112.59 37.16 111.83 36.82L111.82 36.81L111.69 36.49L111.71 36.73L111.74 36.76Q110.86 36.19 110.32 34.85L110.28 34.81L110.26 34.80Q108.96 36.23 107.29 38.37L107.32 38.40L107.42 38.49Q107.65 39.07 108.49 40.02L108.55 40.08L108.43 39.97Q109.47 41.77 112.29 42.26L112.39 42.36L112.40 42.37Q113.55 42.57 118.92 42.69Z"/><path fill="#222" d="M56.38 19.67L56.33 19.61L54.85 19.82L54.88 19.84Q52.49 19.81 52.26 21.83L52.35 21.92L52.31 21.88Q52.16 22.53 52.20 23.52L52.19 23.51L52.23 23.55Q52.36 25.58 53.61 26.91L53.60 26.90L53.59 26.89Q54.78 28.16 56.68 28.00L56.71 28.03L56.63 27.95Q58.72 27.83 59.48 26.92L59.63 27.06L59.51 26.95Q60.52 25.98 60.79 23.73L60.89 23.83L60.97 23.91Q61.08 21.52 59.83 20.68L59.98 20.83L59.85 20.71Q58.95 19.88 56.29 19.58ZM62.31 28.80L62.30 28.79L61.05 31.11L61.10 31.17Q58.40 35.97 54.63 40.04L54.66 40.07L54.65 40.05Q53.02 40.22 50.32 41.02L50.35 41.04L50.35 41.04Q55.67 34.76 58.83 29.96L58.74 29.87L58.76 29.89Q57.75 30.55 56.11 30.63L56.14 30.66L56.20 30.72Q53.13 30.80 51.60 28.82L51.61 28.83L51.49 28.71Q50.43 27.27 49.33 22.70L49.23 22.61L49.32 22.70Q49.18 22.10 49.03 21.17L49.20 21.34L49.06 21.20Q48.91 20.26 48.91 19.81L48.90 19.80L48.86 19.77Q48.97 18.08 50.03 17.47L49.96 17.40L49.95 17.39Q51.24 16.70 53.11 16.70L53.17 16.77L53.10 16.69Q56.33 16.72 56.33 16.72L56.24 16.64L56.27 16.66Q58.52 16.78 59.78 16.98L59.73 16.93L59.65 16.85Q61.86 17.19 62.78 17.69L62.72 17.64L62.87 17.78Q64.07 18.38 64.26 20.13L64.25 20.12L64.28 20.14Q64.40 20.50 64.21 23.16L64.20 23.15L64.24 23.19Q63.74 25.20 63.51 26.03L63.56 26.09L63.57 26.09Q63.13 27.45 62.37 28.85ZM64.29 31.27L64.39 31.37L64.21 31.19Q65.32 29.10 65.85 24.80L65.78 24.73L65.76 24.71Q66.14 22.61 66.10 21.74L66.01 21.64L66.15 21.79Q65.96 19.77 64.78 18.86L64.81 18.88L64.48 18.75L64.49 18.75Q64.25 18.02 63.34 17.38L63.29 17.33L63.41 17.45Q61.07 16.40 56.28 16.25L56.19 16.17L56.25 16.22Q55.41 16.34 52.97 16.34L52.82 16.18L52.92 16.28Q51.22 16.33 49.73 17.02L49.60 16.88L49.62 16.90Q48.50 17.73 48.58 19.56L48.48 19.46L48.65 19.63Q48.83 20.53 49.02 22.55L49.02 22.55L49.03 22.56Q49.65 25.20 49.92 26.04L49.81 25.93L49.75 25.87Q50.40 27.81 51.35 29.10L51.30 29.05L51.30 29.05Q51.72 29.55 52.10 29.93L52.02 29.85L52.10 29.93Q52.31 30.33 52.96 31.25L52.86 31.14L52.85 31.13Q54.40 32.58 56.35 32.77L56.41 32.84L56.42 32.84Q54.38 35.37 52.82 37.28L52.87 37.33L49.31 41.75L49.27 41.72Q51.53 40.97 53.16 40.62L53.22 40.69L53.22 40.68Q52.30 41.40 50.74 43.11L50.74 43.11L50.72 43.10Q53.84 42.22 56.96 42.18L57.01 42.22L56.96 42.18Q59.37 39.67 63.71 32.44L63.73 32.46L63.79 32.60L63.67 32.48Q63.89 31.71 64.23 31.21ZM58.32 22.06L58.32 22.06L58.23 21.98Q58.90 21.92 59.36 22.03L59.38 22.06L59.37 22.05Q59.91 22.06 60.29 22.17L60.28 22.16L60.42 22.30Q60.53 22.68 60.61 23.10L60.48 22.97L60.64 23.12Q60.58 23.41 60.46 23.79L60.62 23.94L60.60 23.93Q60.48 25.56 59.30 26.66L59.40 26.76L59.28 26.65Q58.30 27.64 56.66 27.60L56.73 27.67L56.76 27.70Q56.27 27.63 54.75 27.32L54.82 27.40L54.71 27.29Q54.50 26.43 54.50 25.70L54.62 25.83L54.48 25.68Q54.57 25.59 54.57 25.36L54.54 25.33L54.50 25.29Q54.49 23.07 56.77 22.27L56.80 22.30L56.84 22.34Q57.36 21.94 58.20 21.94Z"/></svg>