<svg xmlns="http://www.w3.org/2000/svg" width="150" height="50" viewBox="0,0,150,50"><path d="M4 39 C71 3,62 11,139 40" stroke="#111" fill="none"/><path d="M16 19 C84 29,84 46,149 12" stroke="#777" fill="none"/><path d="M8 36 C94 9,78 34,134 14" stroke="#555" fill="none"/><path fill="#444" d="M26.62 29.12L26.73 29.23L26.71 29.21Q24.78 29.14 23.56 30.48L23.66 30.58L23.68 30.59Q22.34 31.80 22.19 33.71L22.28 33.81L22.28 33.80Q22.13 35.98 23.35 36.98L23.30 36.94L23.28 36.92Q24.39 37.82 26.52 37.74L26.70 37.92L26.69 37.91Q28.88 37.62 29.83 36.67L29.85 36.69L29.86 36.70Q30.83 35.19 30.71 33.37L30.72 33.37L30.74 33.39Q30.75 31.65 29.67 30.45L29.50 30.29L29.62 30.41Q28.58 29.25 26.75 29.25ZM26.70 19.80L26.60 19.70L26.68 19.78Q25.30 19.69 23.97 20.19L23.85 20.07L23.84 20.06Q22.64 20.95 22.87 22.82L22.89 22.84L22.79 22.74Q23.32 26.50 26.67 26.50L26.71 26.54L26.60 26.44Q28.18 26.64 29.17 25.50L29.18 25.51L29.23 25.56Q30.29 24.49 30.33 22.93L30.28 22.88L30.18 22.78Q30.28 21.06 29.56 20.45L29.57 20.46L29.55 20.44Q27.92 19.65 26.62 19.72ZM26.38 40.30L26.32 40.24L23.30 40.27L23.29 40.26Q21.88 40.37 20.55 39.50L20.40 39.34L20.47 39.41Q19.10 38.27 19.25 35.42L19.36 35.53L19.34 35.51Q19.79 28.65 23.41 27.66L23.36 27.61L23.33 27.58Q21.04 26.67 19.71 21.30L19.80 21.38L19.72 21.30Q19.28 19.80 19.36 19.00L19.43 19.07L19.38 19.02Q19.73 16.94 23.43 16.91L23.47 16.95L23.41 16.89Q27.72 16.89 29.16 17.08L29.20 17.12L29.11 17.03Q33.01 17.62 33.47 19.63L33.48 19.65L33.36 19.53Q33.57 20.23 33.57 20.61L33.48 20.52L33.57 20.62Q33.45 21.18 33.26 21.79L33.38 21.91L33.39 21.92Q32.78 26.14 29.84 27.66L29.76 27.58L29.80 27.61Q33.35 28.47 33.85 33.76L33.83 33.74L33.81 33.73Q33.85 33.91 33.89 35.21L33.82 35.14L33.76 35.08Q33.93 37.91 32.33 38.98L32.28 38.93L32.28 38.93Q30.96 39.86 26.39 40.31ZM28.75 42.71L28.68 42.64L31.92 42.61L32.07 42.75Q33.72 42.77 35.24 42.04L35.20 42.00L35.15 41.96Q36.35 41.28 36.42 39.42L36.57 39.56L36.39 39.38Q36.57 38.42 36.19 36.48L36.23 36.52L36.19 36.49Q35.14 31.70 33.05 29.83L33.15 29.94L33.02 29.62L32.67 29.19L32.59 29.00L32.66 29.07Q34.25 27.66 35.17 23.51L35.17 23.51L35.12 23.46Q35.07 23.03 35.14 22.19L35.31 22.35L35.29 22.33Q35.31 21.59 35.23 20.98L35.19 20.94L35.17 20.92Q35.09 19.54 33.91 19.05L33.78 18.92L33.99 19.09L33.79 18.96L33.66 18.84Q33.47 18.19 32.29 17.39L32.20 17.31L32.29 17.36L32.36 17.42Q30.34 16.70 26.27 16.51L26.29 16.53L26.26 16.50Q24.79 16.48 23.42 16.59L23.25 16.42L23.26 16.43Q22.49 16.50 21.20 16.66L21.30 16.76L21.19 16.65Q19.26 17.04 19.03 18.68L19.09 18.74L19.03 18.67Q18.95 19.13 18.99 19.93L19.04 19.98L19.00 19.94Q19.22 20.57 19.79 22.93L19.67 22.81L19.83 22.98Q20.63 26.21 22.38 27.54L22.39 27.56L22.48 27.65L22.31 27.47Q19.60 28.84 19.07 34.02L19.14 34.09L19.10 34.05Q18.87 36.22 18.87 37.13L18.87 37.13L18.81 37.07Q19.06 39.03 20.24 39.94L20.24 39.94L20.10 39.80Q20.25 39.92 20.52 40.11L20.50 40.10L20.57 40.16Q21.47 42.32 28.59 42.55ZM28.32 31.55L28.40 31.63L28.38 31.61Q29.24 31.47 30.11 31.93L30.09 31.91L30.10 31.91Q30.45 32.87 30.41 33.40L30.41 33.40L30.46 33.46Q30.55 33.81 30.55 34.12L30.41 33.98L30.52 34.08Q30.59 36.51 28.30 37.35L28.31 37.36L28.23 37.28Q27.40 37.56 26.60 37.44L26.58 37.41L26.70 37.54Q25.59 37.64 24.45 37.19L24.44 37.18L24.30 37.05Q24.07 36.43 24.14 35.44L24.26 35.55L24.19 35.49Q24.42 33.96 25.62 32.74L25.52 32.64L25.49 32.61Q26.71 31.42 28.31 31.53ZM28.52 22.04L28.50 22.02L28.52 22.03Q29.29 21.89 29.82 22.05L29.93 22.15L29.95 22.97L29.98 23.00Q29.98 24.41 29.06 25.41L29.07 25.42L28.89 25.24Q28.00 26.27 26.63 26.08L26.63 26.08L26.61 26.06Q25.68 26.13 25.27 25.90L25.27 25.91L25.21 25.85Q25.25 25.66 25.14 24.97L25.19 25.02L25.08 24.91Q24.87 23.56 26.08 22.72L26.08 22.72L26.14 22.78Q27.18 22.07 28.59 22.11Z"/><path d="M18 31 C69 6,82 42,147 23" stroke="#222" fill="none"/><path d="M17 1 C66 29,68 40,136 3" stroke="#444" fill="none"/><path fill="#333" d="M53.72 40.46L53.71 40.44L53.65 40.38Q49.60 40.64 48.61 38.31L48.58 38.28L48.55 38.26Q49.33 37.32 50.89 35.53L50.82 35.46L50.87 35.51Q51.48 37.64 54.48 37.76L54.32 37.59L54.46 37.74Q57.76 37.73 59.40 36.39L59.41 36.40L59.48 36.47Q60.86 34.85 60.79 32.15L60.78 32.14L60.80 32.16Q60.65 27.10 55.85 27.32L55.91 27.38L55.77 27.24Q52.90 27.35 51.15 28.60L51.27 28.72L50.85 28.45L50.65 28.32L50.64 28.32Q51.11 25.28 51.00 22.54L50.86 22.41L51.03 22.58Q50.81 19.84 50.46 16.53L50.54 16.60L50.45 16.52Q54.22 17.58 58.03 17.47L57.91 17.35L57.96 17.40Q61.74 17.30 65.32 16.05L65.26 15.99L64.71 17.53L64.82 17.64Q64.53 18.42 64.34 19.25L64.33 19.25L64.17 19.08Q61.16 20.22 57.28 20.22L57.32 20.26L57.25 20.19Q55.81 20.20 54.32 20.05L54.39 20.11L54.35 20.08Q54.33 20.82 53.99 25.27L53.96 25.24L53.99 25.27Q54.65 24.64 56.71 24.49L56.78 24.56L56.72 24.50Q60.46 24.73 61.90 26.41L62.07 26.58L61.89 26.39Q63.30 27.95 63.56 31.80L63.63 31.87L63.54 31.77Q63.95 36.11 62.73 38.12L62.73 38.13L62.72 38.12Q60.68 39.99 57.37 40.22L57.38 40.24L57.38 40.23Q56.27 40.19 53.60 40.34ZM59.61 42.58L59.77 42.74L59.62 42.59Q63.18 42.80 65.08 41.69L64.95 41.56L64.98 41.60Q65.94 40.04 65.94 37.95L66.07 38.08L65.93 37.94Q66.09 35.02 65.14 30.90L65.15 30.92L65.00 30.76Q64.77 29.17 63.56 27.76L63.47 27.67L63.51 27.75L63.36 27.52L62.95 27.26L62.94 27.25Q62.60 26.50 61.96 25.81L62.07 25.93L61.89 25.78L62.03 25.92Q60.45 24.19 56.76 24.19L56.79 24.22L56.58 24.28L56.56 24.26Q56.48 23.53 56.67 22.43L56.79 22.55L56.79 22.55Q61.76 22.65 65.80 21.01L65.84 21.06L65.71 20.92Q66.24 19.63 67.19 16.81L67.21 16.83L65.15 17.81L65.10 17.76Q65.36 16.50 65.85 15.36L65.91 15.42L65.94 15.45Q62.01 16.81 57.90 16.89L57.89 16.88L58.02 17.00Q53.93 17.14 49.97 16.03L49.96 16.03L49.82 15.89Q50.59 20.39 50.59 24.80L50.58 24.79L50.61 24.82Q50.64 26.76 50.53 28.66L50.57 28.71L50.55 28.69Q50.80 28.86 51.37 29.16L51.42 29.21L51.27 29.06Q51.61 28.83 52.26 28.49L52.34 28.57L52.33 28.56Q52.19 29.22 51.96 30.74L52.09 30.87L52.09 30.87Q52.40 30.95 52.82 31.18L52.91 31.28L52.92 31.28Q55.64 29.48 57.51 29.48L57.43 29.40L57.58 29.55Q58.80 29.43 59.98 30.08L60.07 30.17L59.98 30.08Q60.36 31.14 60.39 32.10L60.48 32.18L60.51 32.21Q60.40 34.62 59.38 35.72L59.50 35.85L59.44 35.79Q58.01 36.94 55.76 37.17L55.75 37.16L55.89 37.30Q54.89 37.33 54.21 37.25L54.30 37.35L54.23 37.28Q53.35 37.12 52.59 36.78L52.60 36.79L52.57 36.56L52.50 36.72L52.48 36.70Q51.72 36.25 51.18 34.91L51.13 34.86L51.13 34.86Q49.78 36.25 48.10 38.38L48.06 38.34L48.03 38.30Q48.48 39.10 49.31 40.05L49.36 40.10L49.19 39.92Q50.41 41.91 53.23 42.40L53.13 42.31L53.09 42.26Q54.31 42.53 59.68 42.65Z"/><path fill="#333" d="M85.93 19.62L85.95 19.63L84.38 19.75L84.48 19.84Q82.06 19.78 81.83 21.80L81.84 21.80L81.96 21.93Q81.80 22.57 81.84 23.56L81.86 23.58L81.91 23.63Q82.00 25.63 83.26 26.96L83.16 26.86L83.08 26.78Q84.51 28.28 86.41 28.13L86.24 27.96L86.41 28.13Q88.46 27.97 89.22 27.06L89.14 26.98L89.17 27.01Q90.26 26.11 90.52 23.87L90.47 23.82L90.45 23.80Q90.82 21.65 89.57 20.82L89.49 20.74L89.47 20.72Q88.70 20.03 86.04 19.73ZM92.00 28.88L91.91 28.80L90.61 31.07L90.64 31.11Q88.07 36.03 84.30 40.11L84.28 40.09L84.22 40.03Q82.53 40.12 79.82 40.92L79.92 41.02L79.96 41.06Q85.26 34.75 88.42 29.95L88.39 29.92L88.39 29.92Q87.37 30.58 85.74 30.65L85.68 30.60L85.77 30.69Q82.75 30.83 81.23 28.85L81.12 28.74L81.21 28.83Q79.91 27.15 78.81 22.58L78.83 22.61L78.92 22.69Q78.95 22.27 78.80 21.34L78.75 21.29L78.75 21.29Q78.64 20.40 78.64 19.94L78.61 19.91L78.61 19.91Q78.47 17.99 79.54 17.38L79.70 17.54L79.53 17.36Q80.83 16.69 82.70 16.69L82.63 16.62L82.63 16.62Q85.81 16.61 85.81 16.61L85.82 16.62L85.87 16.66Q88.03 16.70 89.29 16.89L89.43 17.02L89.24 16.83Q91.38 17.11 92.29 17.61L92.31 17.63L92.41 17.72Q93.82 18.53 94.02 20.28L94.01 20.27L94.00 20.26Q93.84 20.33 93.65 23.00L93.69 23.04L93.77 23.12Q93.39 25.25 93.16 26.09L93.11 26.03L93.07 25.99Q92.84 27.56 92.08 28.97ZM93.87 31.25L93.83 31.22L93.89 31.27Q94.92 29.10 95.45 24.80L95.51 24.85L95.47 24.81Q95.78 22.65 95.74 21.78L95.69 21.73L95.61 21.64Q95.55 19.76 94.37 18.85L94.43 18.91L94.03 18.70L94.21 18.88Q93.95 18.12 93.03 17.47L92.96 17.40L92.92 17.35Q90.59 16.32 85.80 16.17L85.82 16.19L85.96 16.33Q84.99 16.32 82.55 16.32L82.52 16.28L82.46 16.23Q80.72 16.23 79.24 16.92L79.19 16.88L79.16 16.85Q78.19 17.82 78.27 19.65L78.25 19.63L78.27 19.65Q78.34 20.44 78.53 22.46L78.47 22.39L78.46 22.39Q79.18 25.13 79.45 25.97L79.34 25.86L79.43 25.95Q79.93 27.74 80.88 29.03L81.02 29.18L81.04 29.19Q81.26 29.49 81.64 29.87L81.68 29.91L81.69 29.92Q81.92 30.34 82.57 31.26L82.58 31.26L82.55 31.24Q84.09 32.66 86.03 32.85L85.86 32.68L85.93 32.76Q83.97 35.36 82.41 37.26L82.41 37.26L78.87 41.71L78.80 41.65Q81.06 40.90 82.69 40.55L82.71 40.57L82.73 40.59Q81.98 41.48 80.42 43.19L80.44 43.22L80.34 43.11Q83.55 42.33 86.67 42.29L86.70 42.31L86.60 42.22Q88.99 39.70 93.33 32.46L93.26 32.39L93.32 32.53L93.26 32.47Q93.60 31.81 93.94 31.32ZM87.92 22.07L87.83 21.97L87.83 21.97Q88.56 21.98 89.02 22.10L89.04 22.12L88.96 22.03Q89.58 22.13 89.97 22.24L90.04 22.32L89.95 22.23Q90.16 22.70 90.24 23.12L90.26 23.15L90.26 23.15Q90.23 23.46 90.11 23.84L90.15 23.88L90.21 23.94Q90.15 25.63 88.97 26.73L88.89 26.65L88.84 26.60Q87.97 27.71 86.33 27.67L86.41 27.75L86.39 27.73Q85.98 27.74 84.46 27.44L84.34 27.32L84.46 27.44Q84.19 26.52 84.19 25.80L84.22 25.83L84.14 25.75Q84.06 25.47 84.06 25.24L84.02 25.21L84.09 25.27Q84.09 23.07 86.37 22.27L86.36 22.26L86.38 22.27Q87.05 22.03 87.88 22.03Z"/><path fill="#222" d="M112.25 40.40L112.10 40.24L112.22 40.37Q110.73 40.36 109.17 39.95L109.27 40.04L109.29 40.07Q107.95 39.03 107.80 37.39L107.94 37.53L107.78 37.37Q107.76 37.20 107.95 34.57L107.93 34.55L107.91 34.54Q108.96 34.37 110.98 33.99L111.01 34.02L110.92 34.88L110.95 34.91Q110.65 36.63 112.06 37.20L111.98 37.12L112.02 37.16Q112.77 37.45 114.86 37.45L114.85 37.44L114.82 37.41Q116.46 37.30 116.65 37.22L116.64 37.21L116.78 37.35Q117.53 37.03 118.25 36.54L118.36 36.64L118.30 36.58Q119.67 35.60 119.48 33.50L119.46 33.48L119.47 33.49Q119.27 31.04 117.54 29.48L117.64 29.59L117.59 29.54Q115.94 28.06 113.47 28.06L113.35 27.94L113.49 27.86L113.51 27.88Q113.77 27.72 114.65 27.64L114.60 27.60L114.67 27.67Q116.59 27.56 117.96 26.33L117.88 26.25L118.00 26.37Q119.31 25.07 119.46 23.20L119.40 23.14L119.50 23.24Q119.48 22.81 119.48 22.47L119.47 22.45L119.58 22.56Q119.62 21.08 118.25 20.17L118.16 20.08L118.26 20.17Q116.96 19.30 115.36 19.41L115.34 19.39L115.28 19.33Q114.13 19.32 112.91 19.74L112.76 19.59L112.89 19.71Q111.32 20.13 111.02 21.27L111.02 21.28L111.01 21.26Q110.81 22.02 110.89 22.78L111.03 22.92L110.93 22.82Q109.89 22.58 107.84 21.86L107.98 22.01L107.90 21.92Q107.68 20.25 107.71 19.42L107.75 19.45L107.74 19.44Q107.79 17.85 108.85 17.17L108.91 17.22L108.84 17.16Q110.25 16.55 111.85 16.55L111.88 16.57L111.84 16.54Q115.07 16.57 118.23 16.84L118.22 16.83L118.27 16.87Q123.32 17.28 123.02 21.05L123.03 21.06L122.99 21.02Q122.80 22.39 122.30 23.95L122.35 24.00L122.39 24.04Q121.45 27.10 119.09 28.02L119.18 28.10L119.05 27.97Q121.78 28.61 122.39 31.96L122.40 31.97L122.43 31.99Q122.53 33.01 122.61 35.03L122.63 35.06L122.66 35.09Q122.78 39.51 118.18 39.97L118.21 40.00L118.14 39.93Q117.41 40.00 112.12 40.26ZM117.37 42.55L117.31 42.49L117.34 42.52Q118.06 42.67 120.92 42.75L120.83 42.66L120.93 42.75Q122.60 42.76 124.24 42.11L124.22 42.09L124.17 42.03Q125.44 41.18 125.25 39.43L125.29 39.46L125.35 39.52Q125.18 38.14 124.88 36.39L124.76 36.27L124.79 36.30Q124.09 31.83 122.14 30.19L122.14 30.19L121.99 29.85L121.99 29.81L121.96 29.78Q123.64 28.26 124.40 23.88L124.39 23.87L124.38 23.86Q124.40 23.39 124.52 22.44L124.53 22.45L124.61 22.53Q124.64 21.72 124.56 21.04L124.58 21.05L124.60 21.08Q124.42 19.37 123.13 18.69L123.20 18.76L123.10 18.73L123.07 18.71Q122.77 17.73 121.63 17.19L121.57 17.13L121.67 17.23Q120.16 16.56 115.02 16.26L114.99 16.22L115.02 16.25Q113.27 16.10 111.67 16.10L111.61 16.04L111.80 16.23Q110.01 16.04 108.48 16.68L108.54 16.73L108.65 16.85Q107.35 17.53 107.35 19.28L107.29 19.22L107.27 19.20Q107.40 18.91 107.66 22.26L107.60 22.20L107.70 22.29Q108.00 22.37 109.64 22.98L109.57 22.91L109.53 22.87Q109.64 23.51 109.60 24.00L109.53 23.93L109.55 23.96Q109.51 24.41 109.55 24.94L109.60 24.99L109.67 25.06Q111.42 25.41 113.44 25.52L113.38 25.46L113.34 25.43Q113.22 23.37 114.33 22.53L114.40 22.60L114.40 22.60Q115.24 21.96 117.26 21.73L117.21 21.67L117.32 21.79Q118.31 21.63 118.88 21.82L119.02 21.97L118.98 21.93Q118.95 21.97 118.99 22.09L118.96 22.05L119.10 22.38L119.12 22.86L119.17 22.91Q119.06 23.00 119.02 23.15L119.16 23.29L119.09 23.22Q119.06 24.97 117.53 26.15L117.45 26.07L117.60 26.22Q116.55 27.00 114.54 27.19L114.67 27.33L114.61 27.27Q113.81 27.34 112.93 27.34L112.95 27.35L113.04 27.44Q113.07 27.78 113.22 28.46L113.13 28.37L113.22 28.46Q114.87 28.36 116.31 29.08L116.45 29.21L116.18 29.06L114.61 29.24L114.64 29.28Q114.68 29.62 114.79 30.23L114.82 30.26L114.87 30.31Q116.94 30.16 118.65 31.49L118.79 31.63L118.79 31.64Q118.86 31.86 119.17 33.50L119.15 33.48L119.23 33.56Q119.40 36.47 116.47 36.89L116.59 37.01L116.59 37.01Q114.47 37.25 113.90 37.21L113.75 37.07L113.77 37.08Q113.45 37.10 112.91 37.03L112.86 36.97L112.79 36.45L112.87 35.96L112.97 35.64L113.02 35.34L113.00 35.32Q112.02 35.37 111.22 35.56L111.36 35.70L111.23 35.57Q111.18 35.33 111.18 35.14L111.18 35.14L111.28 35.24Q111.26 35.00 111.26 34.77L111.27 34.77L111.26 34.76Q111.32 34.36 111.47 33.64L111.49 33.66L111.37 33.54Q109.62 33.89 107.76 34.23L107.80 34.27L107.65 34.12Q107.82 34.78 107.70 35.91L107.67 35.87L107.63 35.84Q107.51 36.96 107.51 37.56L107.44 37.49L107.46 37.51Q107.66 39.69 109.03 40.45L109.00 40.43L108.97 40.39Q110.51 42.73 115.23 42.54L115.23 42.54L115.23 42.54Q115.93 42.48 117.45 42.63Z"/></svg>